<?xml version="1.0" standalone="no"?>
<!DOCTYPE svg PUBLIC "-//W3C//DTD SVG 20010904//EN"
 "http://www.w3.org/TR/2001/REC-SVG-20010904/DTD/svg10.dtd">
<svg version="1.0" xmlns="http://www.w3.org/2000/svg"
 width="443.000000pt" height="443.000000pt" viewBox="0 0 443.000000 443.000000"
 preserveAspectRatio="xMidYMid meet">
<metadata>
Created by potrace 1.14, written by Peter Selinger 2001-2017
</metadata>
<g transform="translate(0.000000,443.000000) scale(0.100000,-0.100000)"
fill="#000000" stroke="none">
<path d="M10 2215 l0 -2215 2205 0 2205 0 0 2215 0 2215 -2205 0 -2205 0 0
-2215z m2464 1620 c118 -25 258 -80 376 -149 86 -50 127 -83 225 -181 136
-136 184 -212 241 -378 56 -161 69 -268 65 -553 l-1 -111 -82 15 c-112 20
-531 22 -577 2 -24 -10 -35 -10 -44 -1 -14 14 -30 15 -22 1 3 -6 -1 -7 -10 -4
-8 4 -22 1 -30 -6 -7 -6 -22 -10 -32 -8 -10 1 -22 0 -28 -3 -22 -13 -67 -20
-60 -9 3 5 1 10 -4 10 -6 0 -11 -5 -11 -12 0 -6 -3 -9 -6 -5 -9 9 -60 -19 -76
-42 -13 -18 -26 -20 -151 -19 -117 0 -139 2 -146 17 -5 9 -24 25 -42 35 -17
10 -29 14 -25 7 4 -6 2 -11 -3 -11 -6 0 -11 7 -11 15 0 8 -5 15 -11 15 -5 0
-7 -4 -4 -10 4 -6 -6 -7 -27 -3 -18 3 -37 12 -41 20 -4 7 -16 13 -25 12 -14 0
-13 -2 3 -9 18 -8 17 -9 -7 -9 -16 -1 -28 4 -28 10 0 7 -10 9 -27 5 -21 -5
-24 -4 -13 4 13 8 13 10 -2 10 -9 0 -18 -6 -20 -12 -4 -10 -10 -10 -29 -2 -52
24 -454 24 -584 1 -44 -8 -81 -13 -83 -12 -2 1 -3 90 -3 196 0 269 29 416 119
598 89 183 277 363 489 470 119 59 282 110 403 125 68 8 266 -3 344 -19z
m-545 -1448 c29 -8 62 -23 72 -34 41 -41 52 -291 16 -375 -9 -22 -32 -48 -58
-65 l-42 -28 -202 -3 c-229 -4 -401 9 -454 35 -45 23 -60 67 -68 199 -11 198
14 265 107 284 73 15 565 5 629 -13z m1262 13 c101 -19 121 -63 115 -255 -5
-153 -18 -201 -62 -227 -45 -26 -221 -40 -455 -36 -170 3 -199 5 -234 23 -60
30 -86 86 -93 194 -5 91 11 226 30 249 20 23 80 43 158 51 111 12 479 13 541
1z m-2170 -42 c1 -7 1 -21 0 -30 -1 -9 14 -34 33 -55 l35 -39 5 -164 c3 -91
12 -214 21 -274 8 -60 15 -114 15 -119 0 -5 -13 -6 -30 -2 -30 6 -30 6 -30
-35 0 -51 24 -65 50 -30 l18 24 12 -42 c13 -52 10 -58 -40 -73 -35 -11 -41
-10 -68 12 -17 13 -35 34 -41 47 -17 35 -13 104 8 144 18 36 18 39 0 90 -46
139 -81 395 -65 482 8 40 37 76 61 76 8 0 16 -6 16 -12z m2519 -20 c30 -50 27
-178 -10 -358 -16 -80 -35 -163 -43 -185 -13 -36 -12 -43 4 -70 24 -38 25
-117 2 -155 -9 -16 -31 -37 -49 -46 -31 -17 -35 -17 -69 -1 -26 12 -35 22 -32
35 3 9 8 30 12 47 l7 30 17 -24 c27 -36 51 -22 51 29 0 41 0 41 -30 35 -16 -4
-30 -3 -30 2 0 5 7 58 15 117 14 97 25 274 25 390 0 36 7 52 35 86 20 24 35
50 34 59 -5 53 31 58 61 9z m-1197 -224 c11 -4 22 -32 32 -82 21 -100 39 -142
81 -185 43 -44 91 -52 309 -55 137 -2 475 20 495 33 5 3 11 -9 13 -27 l4 -33
1 36 c1 24 8 39 18 43 9 4 19 4 21 2 11 -10 -41 -166 -80 -240 -48 -92 -130
-181 -198 -214 -24 -11 -86 -32 -137 -46 -128 -34 -160 -57 -210 -153 -58
-112 -112 -153 -203 -155 -40 -1 -54 3 -77 24 -44 42 -66 48 -162 48 -69 0
-99 -4 -121 -17 -16 -10 -29 -20 -29 -24 0 -17 -77 -37 -115 -30 -84 16 -125
51 -173 146 -51 102 -92 132 -220 164 -162 40 -256 116 -334 267 -40 78 -85
221 -73 233 2 2 15 -3 28 -12 29 -19 323 -47 494 -47 147 0 278 16 315 38 44
26 77 85 99 180 24 98 30 109 67 115 32 6 132 0 155 -9z"/>
<path d="M1556 2320 c-49 -17 -96 -35 -105 -41 -14 -9 -14 -10 2 -5 15 5 14 0
-7 -27 -32 -42 -68 -108 -63 -114 3 -2 21 11 42 30 20 18 50 41 65 51 l29 16
-1 -51 c0 -58 13 -79 37 -59 13 11 19 10 34 -4 19 -17 53 -23 148 -27 55 -2
78 9 88 42 8 23 19 24 38 4 14 -13 16 -10 22 23 4 23 0 53 -9 80 l-15 42 27
-14 c33 -17 66 -52 86 -91 9 -16 16 -23 16 -15 0 9 -9 33 -20 55 -11 22 -20
40 -20 41 0 1 14 7 31 13 44 15 27 31 -33 31 -33 0 -68 8 -97 22 -32 15 -69
23 -126 25 -69 3 -92 0 -169 -27z m108 -62 c24 -40 -44 -80 -71 -42 -17 23
-16 29 3 49 20 20 53 16 68 -7z"/>
<path d="M2697 2340 c-20 -5 -54 -18 -75 -28 -20 -10 -50 -17 -67 -16 -42 3
-65 -5 -65 -22 0 -8 10 -14 25 -14 29 0 30 -5 10 -53 -20 -48 -19 -70 2 -32
21 41 53 74 87 92 27 14 28 14 21 -3 -23 -55 -27 -90 -16 -132 12 -43 13 -43
32 -26 18 16 20 16 38 0 15 -14 35 -16 111 -13 87 3 94 5 112 30 23 31 43 34
57 10 8 -14 10 -6 11 35 0 35 4 52 13 52 7 0 36 -21 65 -46 29 -26 55 -44 58
-41 5 4 -38 89 -58 114 -5 7 -7 16 -4 21 3 5 -34 24 -82 42 -94 35 -205 47
-275 30z m58 -100 c0 -32 -3 -35 -32 -38 -28 -3 -33 1 -39 23 -8 33 12 57 45
53 22 -3 26 -8 26 -38z"/>
<path d="M980 2247 c0 -2 14 -16 31 -33 22 -20 28 -23 19 -8 -11 18 -50 50
-50 41z"/>
<path d="M3471 2209 c-31 -42 -23 -44 12 -2 16 18 25 33 20 33 -5 0 -19 -14
-32 -31z"/>
<path d="M2432 1559 c-68 -55 -276 -58 -356 -5 -35 22 -43 20 -20 -5 37 -42
92 -59 194 -59 102 0 157 17 194 59 25 28 17 34 -12 10z"/>
<path d="M1970 1304 c75 -24 219 -37 335 -31 118 7 221 23 245 39 11 7 8 8
-11 4 -146 -31 -374 -36 -509 -12 -103 19 -120 19 -60 0z"/>
</g>
</svg>
